<svg id="Laag_1" data-name="Laag 1" xmlns="http://www.w3.org/2000/svg" xmlns:xlink="http://www.w3.org/1999/xlink" viewBox="0 0 500 500"><defs><style>.cls-1{fill:none;}.cls-2{fill:#ccdeeb;}.cls-3{clip-path:url(#clip-path);}.cls-4{fill:#a6c0d3;}.cls-5{fill:#f18443;}.cls-6{fill:#f7af75;}.cls-7{fill:#88b0c7;}.cls-8{fill:#3b94b5;}.cls-9{fill:#00aad6;}.cls-10{fill:#e8394a;}.cls-11{fill:#0092c8;}.cls-12{fill:#e83a4a;}.cls-13{fill:#e6293b;}.cls-14{fill:#e7ecf8;}.cls-15{fill:#ea5351;}</style><clipPath id="clip-path"><rect class="cls-1" x="23.63" y="24.17" width="452.33" height="451.76"/></clipPath></defs><title>Raketje</title><path class="cls-2" d="M281.08,342.13,158,219.05,258.51,118.53A326.32,326.32,0,0,1,434.93,27.25l18.47-3.08h3.07a18.39,18.39,0,0,1,18.47,18.46h0v3.08L472.89,65.2a325.24,325.24,0,0,1-90.27,175.39L281.08,342.13Z"/><g class="cls-3"><path class="cls-4" d="M391.85,159.56,245.18,306.24l35.9,35.89L381.6,241.62c48.21-48.21,79-108.73,90.26-175.4L476,46.73V43.66a17,17,0,0,0-5.13-12.31,322.93,322.93,0,0,1-79,128.21Z"/><path class="cls-5" d="M286.21,439.58a16.09,16.09,0,0,0-22.57,0c-8.2,8.2-13.33,33.84-14.36,34.87v1s1,1,1,0c1,0,25.64-5.13,34.87-14.36,8.21-6.16,8.21-15.39,1-21.54Z"/></g><path class="cls-5" d="M60.55,213.92a16.1,16.1,0,0,0-22.56,0c-8.21,8.21-13.34,32.82-13.34,33.85v1s1,1,1,0c1,0,25.64-5.13,34.87-14.36,7.18-5.13,7.18-14.36,0-20.52Z"/><path class="cls-5" d="M133.38,366.75c-18.46-18.46-49.23-18.46-67.7,0-25.64,25.64-41,100.52-42.05,103.6,0,2,0,3.07,1,4.1a13,13,0,0,0,6.16,1c3.08-1,78-15.39,103.59-42.06a46.16,46.16,0,0,0-1-66.67Z"/><path class="cls-6" d="M130.3,367.78a24.15,24.15,0,0,0-33.85,0C83.12,381.11,75.94,418,75.94,419.06s0,2.05,1,2.05c1,1,1,1,2,1,2,0,39-8.21,51.28-20.51a24.15,24.15,0,0,0,0-33.85Z"/><polygon class="cls-7" points="291.34 393.42 260.57 362.65 322.11 301.11 322.11 362.65 291.34 393.42 291.34 393.42"/><path class="cls-8" d="M288.26,355.47,307.75,336a48.85,48.85,0,0,0,14.36-34.87h0l-61.54,61.54,30.77,30.77,10.25-10.26-13.33-13.33a9.92,9.92,0,0,1,0-14.36Z"/><path class="cls-2" d="M311.85,455l-41-41,73.85-73.85a28.68,28.68,0,0,1,20.52-8.2h0a28.67,28.67,0,0,1,28.72,28.72h0a28.64,28.64,0,0,1-8.21,20.51L311.85,455Z"/><path class="cls-4" d="M385.7,360.6l-73.85,73.85-30.77-30.77-10.26,10.25,41,41,73.85-73.85a28.64,28.64,0,0,0,8.21-20.51,30.23,30.23,0,0,0-2.06-10.26,21.24,21.24,0,0,1-6.15,10.26Z"/><path class="cls-7" d="M106.71,311.36h0c7.18-7.18,15.39-12.3,23.59-14.36l17.44-6.15,61.54,61.54-6.15,17.44a60.94,60.94,0,0,1-14.36,23.59h0l-82.06-82.06Z"/><path class="cls-8" d="M147.74,290.85,132.35,296l33.85,33.85c8.21,8.2,10.26,19.48,7.18,29.74h0a34.68,34.68,0,0,1-6.15,12.31l21.54,21.54c7.18-7.18,12.3-15.39,14.36-23.59l6.15-17.44-61.54-61.54Z"/><polygon class="cls-7" points="106.71 208.79 137.48 239.56 199.02 178.02 137.48 178.02 106.71 208.79 106.71 208.79"/><path class="cls-8" d="M134.4,216a9.92,9.92,0,0,1,0-14.36L158,178H137.48l-30.77,30.77,30.77,30.78h0c6.16-6.16,6.16-14.36,0-20.52L134.4,216Z"/><path class="cls-2" d="M45.17,188.28l41,41,73.85-73.85a28.64,28.64,0,0,0,8.2-20.52h0c0-15.38-13.33-28.72-28.72-28.72h0A28.64,28.64,0,0,0,119,114.43L45.17,188.28Z"/><path class="cls-9" d="M311.85,147.25a41,41,0,1,1-41,41,41,41,0,0,1,41-41Z"/><path class="cls-10" d="M311.85,157.51c-17.44,0-30.77,13.33-30.77,30.77s13.33,30.77,30.77,30.77,30.77-13.33,30.77-30.77-13.33-30.77-30.77-30.77Zm0,82.06a51.29,51.29,0,1,1,51.29-51.29,50.79,50.79,0,0,1-51.29,51.29Z"/><path class="cls-11" d="M295.44,215c-3.08-5.13-4.1-10.26-4.1-16.41,0-17.44,13.33-30.77,30.77-30.77,6.15,0,11.28,2,16.41,4.1-6.16-8.21-15.39-14.36-26.67-14.36-17.44,0-30.77,13.33-30.77,30.77,0,11.28,6.15,20.51,14.36,26.67Z"/><path class="cls-12" d="M281.08,342.13,247.23,376a9.9,9.9,0,0,1-14.36,0L124.15,267.26a9.9,9.9,0,0,1,0-14.36L158,219.05,281.08,342.13Z"/><path class="cls-13" d="M205.18,317.52,140.56,252.9c-4.1-4.1-11.28-4.1-16.41,0h0a9.9,9.9,0,0,0,0,14.36L232.87,376a9.9,9.9,0,0,0,14.36,0l33.85-33.85-35.9-35.89L233.9,317.52a19.84,19.84,0,0,1-28.72,0Z"/><polygon class="cls-12" points="271.17 413.99 301.63 383.52 342.97 424.87 312.51 455.33 271.17 413.99 271.17 413.99"/><path class="cls-13" d="M332.36,413.93,318,428.29c-6.16,6.16-14.36,6.16-20.52,0L277,407.78l-6.16,6.15,41,41,30.77-30.77-10.26-10.26Z"/><path class="cls-14" d="M199,213.92c-1,0-3.07,0-4.1-1a5,5,0,0,1,0-7.18l51.29-51.29a5.08,5.08,0,1,1,7.18,7.18L202.1,212.9c0,1-2,1-3.08,1Z"/><path class="cls-14" d="M270.82,142.12c-1,0-3.07,0-4.1-1a5,5,0,0,1,0-7.18l20.51-20.52a5.08,5.08,0,1,1,7.18,7.18L273.9,141.1c0,1-2,1-3.08,1Z"/><path class="cls-12" d="M457.5,24.17h-3.08l-19.49,3.08C403.14,32.37,373.39,42.63,344.67,57l49.24,49.23,49.23,49.24C457.5,126.74,466.73,97,472.89,65.2L476,46.73V43.66c0-11.29-8.2-19.49-18.46-19.49Z"/><path class="cls-15" d="M383.65,66.22a5.64,5.64,0,0,1-5.13-3.08Q377,58.54,381.6,57c20.51-8.21,41-13.33,62.57-17.44,3.07,0,5.12,1,6.15,4.11,0,3.07-1,5.12-4.1,6.15-20.52,3.08-41,9.23-60.52,16.41Z"/><path class="cls-15" d="M311.85,138v-1a50.79,50.79,0,0,0-51.28,51.29h1a10,10,0,0,0,10.26-8.21c1-7.18,5.13-13.33,9.23-18.46,6.15-6.15,13.33-11.28,22.57-13.33a10,10,0,0,0,8.2-10.26Z"/><path class="cls-13" d="M311.85,238.54v1a50.79,50.79,0,0,0,51.29-51.29h-1a10,10,0,0,0-10.26,8.21c-1,7.18-5.13,13.33-9.23,18.46-6.15,6.15-13.33,11.28-22.56,13.33a10,10,0,0,0-8.21,10.26Z"/><path class="cls-14" d="M332.36,378c-1,0-3.07,0-4.1-1a5,5,0,0,1,0-7.18l20.52-20.52a5.08,5.08,0,1,1,7.18,7.18L335.44,377c0,1-2.05,1-3.08,1Z"/><path class="cls-4" d="M160.05,134.94,86.2,208.79,55.43,178,45.17,188.28l41,41,73.85-73.85a28.64,28.64,0,0,0,8.2-20.52,30.18,30.18,0,0,0-2.05-10.25,21.25,21.25,0,0,1-6.15,10.25Z"/><path class="cls-14" d="M106.71,152.38c-1,0-3.08,0-4.1-1a5,5,0,0,1,0-7.18l20.51-20.51a5.08,5.08,0,0,1,7.18,7.18l-20.51,20.51c0,1-2.05,1-3.08,1Z"/><polygon class="cls-12" points="45.49 188.33 75.95 157.87 117.29 199.21 86.83 229.67 45.49 188.33 45.49 188.33"/><path class="cls-13" d="M106.71,188.28,92.35,202.64c-6.15,6.15-14.36,6.15-20.51,0L51.32,182.13l-6.15,6.15,41,41L117,198.54l-10.26-10.26Z"/><path class="cls-13" d="M417.5,129.82l25.64,25.64C457.5,126.74,466.73,97,472.89,65.2L476,46.73V43.66a17,17,0,0,0-5.13-12.31c-11.28,34.87-29.74,68.72-53.33,98.47Z"/></svg>